<svg id="visual" viewBox="0 0 900 600" width="900" height="600" xmlns="http://www.w3.org/2000/svg" xmlns:xlink="http://www.w3.org/1999/xlink" version="1.1"><rect x="0" y="0" width="900" height="600" fill="#001220"></rect><g fill="#2f23a6"><circle r="72" cx="716" cy="498"></circle><circle r="36" cx="370" cy="194"></circle><circle r="58" cx="623" cy="252"></circle><circle r="42" cx="242" cy="381"></circle><circle r="64" cx="703" cy="55"></circle><circle r="38" cx="805" cy="375"></circle><circle r="47" cx="152" cy="110"></circle><circle r="38" cx="48" cy="533"></circle><circle r="46" cx="450" cy="548"></circle><circle r="36" cx="385" cy="421"></circle><circle r="61" cx="555" cy="112"></circle><circle r="57" cx="303" cy="48"></circle><circle r="40" cx="71" cy="315"></circle><circle r="36" cx="39" cy="23"></circle><circle r="49" cx="868" cy="40"></circle><circle r="44" cx="248" cy="596"></circle><circle r="67" cx="778" cy="185"></circle><circle r="35" cx="586" cy="392"></circle></g></svg>